<svg width="811" height="936.9999999999999" xmlns="http://www.w3.org/2000/svg" preserveAspectRatio="xMidYMid meet" version="1.0">

 <g>
  <title>Layer 1</title>
  <g id="svg_1" fill="white" transform="translate(0 937) scale(0.1 -0.1)">
   <path id="svg_2" d="m3035,9354c-38,-7 -112,-20 -164,-30c-168,-30 -249,-71 -350,-179c-81,-87 -100,-141 -112,-315c-5,-74 -8,-603 -7,-1176l3,-1041l60,29c159,77 366,147 545,183c190,38 442,46 675,20c630,-68 1195,-420 1573,-982c114,-169 228,-430 276,-633c54,-231 74,-491 57,-733c-15,-199 -35,-301 -96,-483c-46,-141 -63,-181 -130,-314c-152,-305 -361,-555 -633,-757c-307,-229 -694,-382 -1052,-418c-461,-46 -851,20 -1223,207l-58,29l3,-1158c3,-1090 5,-1161 22,-1213c47,-142 171,-261 320,-308c83,-27 148,-40 306,-63c193,-27 594,-27 782,1c259,38 356,74 462,171c76,70 119,147 136,246c6,37 17,184 23,326l12,259l60,20c218,73 403,145 567,222c139,64 167,76 183,76c22,0 48,-21 190,-154c284,-268 329,-291 535,-284c97,3 111,6 183,40c240,115 619,454 845,756c138,186 192,311 192,448c0,150 -61,250 -306,506c-115,121 -149,168 -140,202c3,14 24,64 46,111c22,47 40,88 40,90c0,2 14,34 31,72c16,37 34,77 39,88c17,39 68,171 93,240c14,39 34,97 46,130l22,61l278,12c370,16 423,31 541,152c140,142 200,405 200,877c0,338 -38,621 -99,741c-57,111 -179,218 -287,252c-53,16 -117,22 -342,31c-174,8 -281,16 -288,23c-6,6 -20,40 -32,76c-52,163 -110,308 -202,510c-26,58 -57,126 -69,152c-11,26 -21,56 -21,67c0,20 40,67 217,254c194,205 229,279 221,473c-3,89 -7,107 -40,176c-128,270 -498,671 -829,898c-143,98 -255,140 -374,140c-152,0 -244,-54 -496,-292c-188,-177 -179,-172 -252,-139c-23,11 -67,30 -97,44c-30,13 -86,39 -125,56c-100,46 -102,47 -185,80c-68,26 -124,47 -300,109l-55,20l-6,273c-7,312 -16,357 -90,468c-99,148 -250,214 -574,251c-205,24 -635,26 -750,4z"/>
   <path id="svg_3" d="m340,9319c-160,-31 -299,-173 -330,-339c-14,-73 -14,-8486 0,-8561c31,-164 151,-291 317,-334c85,-22 1201,-22 1286,0c162,42 270,150 312,312c13,50 15,572 15,4303c0,4624 4,4294 -54,4408c-52,101 -175,190 -295,212c-66,12 -1187,12 -1251,-1z"/>
  </g>
 </g>
</svg>